<?xml version="1.0" standalone="no"?>
<!DOCTYPE svg PUBLIC "-//W3C//DTD SVG 20010904//EN"
 "http://www.w3.org/TR/2001/REC-SVG-20010904/DTD/svg10.dtd">
<svg version="1.0" xmlns="http://www.w3.org/2000/svg"
 width="634.000000pt" height="634.000000pt" viewBox="0 0 634.000000 634.000000"
 preserveAspectRatio="xMidYMid meet">
<metadata>
Created by potrace 1.11, written by Peter Selinger 2001-2013
</metadata>
<g transform="translate(0.000000,634.000000) scale(0.100000,-0.100000)"
fill="#000000" stroke="none">
<path d="M3074 6315 c-5 -8 -513 -196 -1129 -419 -1799 -651 -1828 -661 -1833
-674 -2 -7 12 -19 32 -27 23 -10 33 -20 30 -29 -3 -8 -1 -17 5 -21 8 -4 11
-554 11 -1855 l0 -1848 -40 -16 c-22 -9 -40 -20 -40 -24 0 -12 -34 3 1515
-669 792 -343 1445 -629 1450 -637 12 -15 85 -29 85 -16 0 11 -154 -57 1524
671 786 341 1445 628 1464 638 l35 18 -26 7 -27 6 0 1890 0 1889 21 12 c21 11
20 11 -7 26 -16 8 -357 133 -759 278 -1277 460 -1342 484 -1765 637 -228 83
-426 155 -440 161 -38 16 -95 17 -106 2z m415 -665 c-162 -181 -279 -419 -368
-751 -55 -205 -66 -305 -66 -599 0 -231 3 -283 23 -404 63 -371 172 -693 379
-1116 l106 -215 106 -104 c260 -254 447 -393 639 -477 87 -38 162 -84 162 -99
0 -17 -104 -7 -170 17 -30 11 -119 37 -196 58 l-141 38 -6 -167 c-3 -91 -13
-200 -22 -241 -8 -41 -20 -119 -25 -173 -5 -54 -14 -106 -20 -117 -13 -25 -40
-25 -71 -1 -33 26 -171 107 -249 146 -152 76 -327 135 -404 135 -14 0 -101
-41 -194 -90 -93 -50 -172 -90 -176 -90 -3 0 -6 83 -6 184 0 225 -12 323 -48
396 l-27 55 -60 6 c-33 4 -99 7 -146 8 -51 1 -92 6 -101 13 -11 9 -23 53 -37
131 -13 77 -30 141 -49 180 -16 34 -98 156 -181 271 -83 115 -149 211 -146
214 6 7 476 50 660 61 107 6 171 15 223 32 39 12 72 25 72 29 0 4 -39 30 -87
56 -55 31 -112 74 -157 119 -68 67 -77 81 -208 345 -173 348 -181 371 -182
520 -1 69 4 127 11 145 7 17 14 64 16 106 2 42 7 81 11 88 5 7 30 -8 72 -44
77 -65 99 -71 88 -22 -15 58 2 327 27 417 5 19 28 57 52 83 l42 48 69 -85 c93
-114 105 -118 125 -41 17 66 194 427 290 590 103 174 176 271 238 315 58 42
163 99 181 100 7 0 -15 -31 -49 -70z"/>
</g>
</svg>
