<svg version="1" xmlns="http://www.w3.org/2000/svg" width="845.333" height="845.333" viewBox="0 0 634.000000 634.000000"><path d="M307.4 2.5c-.5.8-51.3 19.6-112.9 41.9-179.9 65.1-182.8 66.1-183.3 67.4-.2.7 1.2 1.9 3.2 2.7 2.3 1 3.3 2 3 2.9-.3.8-.1 1.7.5 2.1.8.4 1.1 55.4 1.1 185.5v184.8l-4 1.6c-2.2.9-4 2-4 2.4 0 1.2-3.4-.3 151.5 66.9 79.2 34.3 144.5 62.9 145 63.7 1.2 1.5 8.5 2.9 8.5 1.6 0-1.1-15.4 5.7 152.4-67.1 78.6-34.1 144.5-62.8 146.4-63.8l3.5-1.8-2.6-.7-2.7-.6V114.1l2.1-1.2c2.1-1.1 2-1.1-.7-2.6-1.6-.8-35.7-13.3-75.9-27.8-127.7-46-134.2-48.4-176.5-63.7-22.8-8.3-42.6-15.5-44-16.1-3.8-1.6-9.5-1.7-10.6-.2zM348.9 69c-16.2 18.1-27.9 41.9-36.8 75.1-5.5 20.5-6.6 30.5-6.6 59.9 0 23.1.3 28.3 2.3 40.4 6.3 37.1 17.2 69.3 37.9 111.6l10.6 21.5 10.6 10.4c26 25.4 44.7 39.3 63.9 47.7 8.7 3.8 16.2 8.4 16.2 9.9 0 1.7-10.4.7-17-1.7-3-1.1-11.9-3.7-19.6-5.8l-14.1-3.8-.6 16.7c-.3 9.1-1.3 20-2.2 24.1-.8 4.1-2 11.9-2.5 17.3s-1.4 10.6-2 11.7c-1.3 2.5-4 2.5-7.1.1-3.3-2.6-17.1-10.7-24.9-14.6-15.2-7.6-32.7-13.5-40.4-13.5-1.4 0-10.1 4.1-19.4 9-9.3 5-17.2 9-17.6 9-.3 0-.6-8.3-.6-18.4 0-22.5-1.2-32.3-4.8-39.6l-2.7-5.5-6-.6c-3.3-.4-9.9-.7-14.6-.8-5.1-.1-9.2-.6-10.1-1.3-1.1-.9-2.3-5.3-3.7-13.1-1.3-7.7-3-14.1-4.9-18-1.6-3.4-9.8-15.6-18.1-27.1-8.3-11.5-14.9-21.1-14.6-21.4.6-.7 47.6-5 66-6.1 10.7-.6 17.1-1.5 22.3-3.2 3.9-1.2 7.2-2.5 7.2-2.9 0-.4-3.9-3-8.7-5.6-5.5-3.1-11.2-7.4-15.7-11.9-6.8-6.7-7.7-8.1-20.8-34.5-17.3-34.8-18.1-37.1-18.2-52-.1-6.9.4-12.7 1.1-14.5.7-1.7 1.4-6.4 1.6-10.6.2-4.2.7-8.1 1.1-8.8.5-.7 3 .8 7.2 4.4 7.7 6.5 9.9 7.1 8.8 2.2-1.5-5.8.2-32.7 2.7-41.7.5-1.9 2.8-5.7 5.2-8.3l4.2-4.8 6.9 8.5c9.3 11.4 10.5 11.8 12.5 4.1 1.7-6.6 19.4-42.7 29-59 10.3-17.4 17.6-27.1 23.8-31.5 5.8-4.2 16.3-9.9 18.1-10 .7 0-1.5 3.1-4.9 7z"/></svg>